# xmcd CD database file
#
# Track frame offsets:
#	150
#	14674
#	26185
#	40225
#	54789
#	63838
#	74898
#	87082
#	98529
#	109172
#	119186
#	130895
#	144206
#	155175
#	170419
#	178853
#	191916
#	203332
#	216304
#	233551
#
# Disc length: 3273 seconds
#
# Revision: 2
# Processed by: cddbd v1.5.2PL0 Copyright (c) Steve Scherf et al.
# Submitted via: CDex 1.70beta2
#
DISCID=250cc714
DTITLE=Frankie Laine - The Frankie Laine Collection Vol 2
DYEAR=2004
DGENRE=Country
TTITLE0=Jezebel
TTITLE1=Rose, Rose I Love You
TTITLE2=The Girl In The Wood
TTITLE3=Jealousy (Jalousie)
TTITLE4=Sugarbush
TTITLE5=Your Cheatin' Heart
TTITLE6=The Rock Of Gibralter
TTITLE7=Where The Wind Blows
TTITLE8=Hey! Joe
TTITLE9=Tell Me A Story
TTITLE10=Blowing Wind
TTITLE11=Granada
TTITLE12=The Gandy Dancers' Ball
TTITLE13=The Kid's Last Fight
TTITLE14=Settin' The Woods On Fire
TTITLE15=Rain' Rain' Rain
TTITLE16=Love Is A Golden Ring
TTITLE17=The Moment Of Truth
TTITLE18=New Orleans
TTITLE19=Hawk-Eye
EXTD=YEAR: 2004
EXTT0=
EXTT1=
EXTT2=
EXTT3=
EXTT4=
EXTT5=
EXTT6=
EXTT7=
EXTT8=
EXTT9=
EXTT10=
EXTT11=
EXTT12=
EXTT13=
EXTT14=
EXTT15=
EXTT16=
EXTT17=
EXTT18=
EXTT19=
PLAYORDER=
